<svg width="260" height="157" viewBox="0 0 260 157" fill="none" xmlns="http://www.w3.org/2000/svg">
<g opacity="0.1" clip-path="url(#clip0)">
<g opacity="0.2">
<path opacity="0.2" d="M201.478 154.538C203.512 156.55 206.773 156.55 208.808 154.508C210.812 152.466 210.812 149.194 208.778 147.152C206.743 145.11 203.482 145.14 201.448 147.182C199.443 149.224 199.443 152.496 201.478 154.538Z" fill="white"/>
</g>
<path d="M251.174 154.538C253.208 156.55 256.47 156.55 258.504 154.508C260.509 152.466 260.509 149.194 258.474 147.152C256.44 145.14 253.178 145.14 251.144 147.182C249.139 149.224 249.169 152.496 251.174 154.538Z" fill="white"/>
<path d="M230.26 157C228.615 157 227.089 156.37 225.922 155.199C223.528 152.797 223.498 148.893 225.892 146.491C227.059 145.32 228.585 144.69 230.23 144.66H230.26C231.906 144.66 233.432 145.29 234.598 146.461C235.765 147.632 236.394 149.164 236.423 150.815C236.423 152.466 235.795 153.998 234.628 155.169C233.461 156.34 231.906 157 230.26 157ZM230.26 146.612C229.183 146.612 228.106 147.032 227.268 147.873C225.623 149.524 225.652 152.196 227.298 153.848C228.106 154.628 229.153 155.079 230.26 155.079C230.26 155.079 230.26 155.079 230.29 155.079C231.427 155.079 232.474 154.628 233.252 153.817C234.898 152.166 234.868 149.494 233.222 147.843C232.384 147.032 231.307 146.612 230.26 146.612Z" fill="white"/>
<path d="M176.674 156.76C175.119 156.76 173.623 156.159 172.516 155.048C171.409 153.937 170.78 152.436 170.78 150.875C170.78 149.284 171.379 147.812 172.486 146.671C174.789 144.359 178.529 144.329 180.833 146.641C183.137 148.953 183.167 152.706 180.863 155.018C179.756 156.129 178.26 156.76 176.674 156.76ZM176.674 146.371C176.644 146.371 176.644 146.371 176.674 146.371C175.478 146.371 174.341 146.852 173.503 147.692C172.665 148.533 172.216 149.674 172.216 150.845C172.216 152.046 172.695 153.157 173.533 153.997C174.371 154.838 175.478 155.289 176.674 155.289C176.674 155.289 176.674 155.289 176.704 155.289C177.901 155.289 179.008 154.808 179.846 153.967C181.581 152.226 181.551 149.404 179.816 147.662C178.948 146.822 177.841 146.371 176.674 146.371Z" fill="white"/>
<path d="M148.191 157C146.545 157 145.02 156.37 143.853 155.199C141.459 152.797 141.429 148.893 143.823 146.491C144.99 145.32 146.516 144.69 148.161 144.66C149.717 144.63 151.333 145.29 152.499 146.461C153.666 147.632 154.295 149.164 154.325 150.815C154.325 152.466 153.696 153.998 152.529 155.169C151.392 156.339 149.867 157 148.191 157C148.221 157 148.221 157 148.191 157ZM148.191 146.611C147.114 146.611 146.037 147.032 145.199 147.872C143.554 149.524 143.583 152.196 145.229 153.847C146.007 154.628 147.084 155.078 148.191 155.078C148.191 155.078 148.191 155.078 148.221 155.078C149.358 155.078 150.405 154.628 151.183 153.817C152.829 152.166 152.799 149.494 151.153 147.842C150.345 147.032 149.268 146.611 148.191 146.611Z" fill="white"/>
<path d="M119.738 156.76C118.182 156.76 116.686 156.159 115.579 155.048C114.472 153.937 113.843 152.436 113.843 150.875C113.843 149.284 114.442 147.812 115.549 146.671C117.853 144.359 121.593 144.329 123.896 146.641C126.2 148.953 126.23 152.706 123.926 155.018C122.819 156.129 121.353 156.76 119.738 156.76C119.768 156.76 119.738 156.76 119.738 156.76ZM119.738 146.371C118.541 146.371 117.404 146.852 116.566 147.692C115.728 148.533 115.28 149.674 115.28 150.845C115.28 152.046 115.758 153.157 116.596 153.997C117.434 154.838 118.541 155.289 119.738 155.289C119.738 155.289 119.738 155.289 119.768 155.289C120.964 155.289 122.071 154.808 122.909 153.967C124.644 152.226 124.614 149.404 122.879 147.662C122.041 146.822 120.934 146.371 119.738 146.371Z" fill="white"/>
<path d="M87.6341 154.538C89.6686 156.55 92.9298 156.55 94.9643 154.508C96.969 152.466 96.969 149.194 94.9344 147.152C92.8999 145.14 89.6387 145.14 87.6042 147.182C85.5996 149.224 85.5996 152.496 87.6341 154.538Z" fill="white"/>
<path d="M62.8308 157C61.1853 157 59.6594 156.37 58.4925 155.199C57.3256 154.028 56.6973 152.496 56.6674 150.845C56.6674 149.194 57.2957 147.632 58.4626 146.491C59.6294 145.32 61.1553 144.69 62.8009 144.66C64.4465 144.63 65.9724 145.29 67.1392 146.461C68.3061 147.632 68.9344 149.164 68.9643 150.815C68.9643 152.466 68.336 153.998 67.1692 155.169C66.0322 156.339 64.4764 157 62.8308 157ZM62.8308 146.611C61.7537 146.611 60.6766 147.032 59.8389 147.872C59.061 148.683 58.6122 149.734 58.6122 150.845C58.6122 151.986 59.061 153.037 59.8688 153.817C60.6766 154.598 61.7238 155.048 62.8308 155.048C62.8308 155.048 62.8308 155.048 62.8607 155.048C63.9977 155.048 65.0449 154.598 65.8228 153.787C67.4683 152.136 67.4384 149.464 65.7929 147.812C64.9551 147.032 63.9079 146.611 62.8308 146.611Z" fill="white"/>
<path d="M34.3475 156.76C32.7917 156.76 31.2957 156.159 30.1887 155.048C27.8849 152.736 27.855 148.983 30.1588 146.671C32.4626 144.359 36.2025 144.329 38.5063 146.641C40.8101 148.953 40.84 152.706 38.5362 155.018C37.4292 156.129 35.9631 156.76 34.3475 156.76C34.3774 156.76 34.3774 156.76 34.3475 156.76ZM34.3475 146.371C33.1507 146.371 32.0138 146.852 31.176 147.692C29.4407 149.434 29.4706 152.256 31.2059 153.997C32.0437 154.838 33.1507 155.289 34.3475 155.289C34.3475 155.289 34.3475 155.289 34.3774 155.289C35.5742 155.289 36.6812 154.808 37.5189 153.967C39.2543 152.226 39.2243 149.404 37.489 147.662C36.6513 146.822 35.5443 146.371 34.3475 146.371Z" fill="white"/>
<path d="M5.89413 156.76C4.33832 156.76 2.84235 156.159 1.73533 155.048C0.628308 153.938 0 152.436 0 150.875C0 149.284 0.598389 147.812 1.70541 146.671C2.81243 145.561 4.3084 144.93 5.86421 144.93C7.42002 144.96 8.916 145.531 10.0529 146.641C12.3567 148.953 12.3867 152.707 10.0829 155.018C8.97583 156.129 7.50978 156.76 5.89413 156.76C5.92405 156.76 5.89413 156.76 5.89413 156.76ZM5.89413 146.371C4.69735 146.371 3.56041 146.852 2.72267 147.692C1.88493 148.533 1.43613 149.674 1.43613 150.845C1.43613 152.046 1.91484 153.157 2.75259 153.998C3.59033 154.838 4.69735 155.289 5.89413 155.289C5.89413 155.289 5.89413 155.289 5.92405 155.289C7.12083 155.289 8.22785 154.808 9.06559 153.968C10.8009 152.226 10.771 149.404 9.03567 147.662C8.19793 146.822 7.09091 146.371 5.89413 146.371Z" fill="white"/>
<path opacity="0.2" d="M201.478 130.548C203.512 132.56 206.773 132.56 208.808 130.518C210.812 128.477 210.812 125.204 208.778 123.162C206.743 121.12 203.482 121.15 201.448 123.192C199.443 125.234 199.443 128.507 201.478 130.548Z" fill="white"/>
<path d="M173.024 130.548C175.059 132.56 178.32 132.56 180.354 130.518C182.359 128.477 182.359 125.204 180.324 123.162C178.29 121.15 175.029 121.15 172.994 123.192C170.99 125.234 170.99 128.507 173.024 130.548Z" fill="white"/>
<path d="M144.571 130.548C146.605 132.56 149.867 132.56 151.901 130.518C153.906 128.477 153.906 125.204 151.871 123.162C149.837 121.12 146.575 121.15 144.541 123.192C142.506 125.234 142.536 128.507 144.571 130.548Z" fill="white"/>
<path d="M119.738 132.77C118.242 132.77 116.716 132.199 115.579 131.058C113.275 128.747 113.245 124.993 115.549 122.682C117.853 120.37 121.593 120.34 123.896 122.651C125.003 123.762 125.632 125.264 125.632 126.825C125.632 128.416 125.033 129.887 123.926 131.028C122.789 132.199 121.264 132.77 119.738 132.77ZM116.596 130.038C118.331 131.779 121.174 131.749 122.879 130.008C124.615 128.266 124.585 125.444 122.849 123.702C122.012 122.862 120.904 122.411 119.708 122.411C119.708 122.411 119.708 122.411 119.678 122.411C118.481 122.411 117.374 122.892 116.536 123.732C114.861 125.444 114.861 128.296 116.596 130.038Z" fill="white"/>
<path opacity="0.3" d="M59.1807 130.548C61.2152 132.56 64.4764 132.56 66.5109 130.518C68.5155 128.477 68.5155 125.204 66.481 123.162C64.4465 121.15 61.1853 121.15 59.1507 123.192C57.1461 125.234 57.1461 128.507 59.1807 130.548Z" fill="white"/>
<path opacity="0.2" d="M34.3475 132.77C32.8515 132.77 31.3256 132.199 30.1887 131.058C27.8849 128.747 27.855 124.993 30.1588 122.682C32.4626 120.37 36.2025 120.34 38.5063 122.651C40.8101 124.963 40.84 128.717 38.5362 131.028C37.3993 132.199 35.8734 132.77 34.3475 132.77ZM31.2359 130.038C32.9712 131.779 35.7836 131.749 37.5189 130.008C39.2543 128.266 39.2243 125.444 37.489 123.702C36.6513 122.862 35.4844 122.471 34.3475 122.411C33.1507 122.411 32.0437 122.892 31.2059 123.732C29.4706 125.444 29.5005 128.296 31.2359 130.038Z" fill="white"/>
<path d="M5.89418 132.77C4.3982 132.77 2.87231 132.2 1.73537 131.059C-0.568424 128.747 -0.598343 124.994 1.70545 122.682C2.81247 121.571 4.30845 120.94 5.86426 120.94C5.86426 120.94 5.86426 120.94 5.89418 120.94C7.44999 120.94 8.94596 121.541 10.053 122.652C12.3568 124.964 12.3867 128.717 10.0829 131.029C8.94596 132.2 7.42007 132.77 5.89418 132.77ZM2.78255 130.038C4.51788 131.779 7.36023 131.749 9.06564 130.008C10.801 128.266 10.771 125.444 9.03572 123.702C8.19798 122.862 7.09096 122.411 5.89418 122.411C5.89418 122.411 5.89418 122.411 5.86426 122.411C4.66748 122.411 3.56046 122.892 2.72272 123.732C1.01731 125.444 1.01731 128.296 2.78255 130.038Z" fill="white"/>
<path opacity="0.2" d="M201.478 106.558C203.512 108.57 206.773 108.57 208.808 106.528C210.812 104.487 210.812 101.214 208.778 99.1722C206.743 97.1305 203.482 97.1606 201.448 99.2023C199.443 101.244 199.443 104.547 201.478 106.558Z" fill="white"/>
<path d="M176.674 108.81C175.118 108.81 173.623 108.21 172.515 107.099C170.212 104.787 170.182 101.034 172.486 98.7217C173.593 97.6107 175.089 96.9802 176.644 96.9802C178.2 96.9202 179.696 97.5807 180.833 98.6916C181.94 99.8026 182.568 101.304 182.568 102.865C182.568 104.456 181.97 105.928 180.863 107.069C179.756 108.179 178.26 108.78 176.674 108.81ZM176.674 98.4214C175.537 98.4214 174.4 98.8718 173.533 99.7425C172.695 100.583 172.246 101.724 172.246 102.895C172.246 104.096 172.725 105.207 173.563 106.048C174.4 106.888 175.507 107.339 176.704 107.339C176.704 107.339 176.704 107.339 176.734 107.339C177.931 107.339 179.038 106.858 179.876 106.018C180.713 105.177 181.162 104.036 181.162 102.865C181.162 101.664 180.684 100.553 179.846 99.7125C178.918 98.8418 177.811 98.4214 176.674 98.4214Z" fill="white"/>
<path opacity="0.3" d="M144.571 106.558C146.605 108.57 149.867 108.57 151.901 106.528C153.936 104.487 153.906 101.214 151.871 99.1722C149.837 97.1305 146.575 97.1606 144.541 99.2023C142.506 101.244 142.536 104.547 144.571 106.558Z" fill="white"/>
<path d="M119.738 108.81C118.182 108.81 116.686 108.21 115.579 107.099C113.275 104.787 113.245 101.034 115.549 98.7217C116.656 97.6107 118.152 96.9802 119.708 96.9802C121.264 96.9202 122.759 97.5807 123.896 98.6916C125.003 99.8026 125.632 101.304 125.632 102.865C125.632 104.456 125.033 105.928 123.926 107.069C122.819 108.179 121.353 108.78 119.738 108.81C119.768 108.81 119.738 108.81 119.738 108.81ZM119.738 98.4214C118.601 98.4214 117.464 98.8718 116.596 99.7425C115.758 100.583 115.31 101.724 115.31 102.895C115.31 104.096 115.788 105.207 116.626 106.048C117.464 106.888 118.631 107.399 119.768 107.339C120.964 107.339 122.071 106.858 122.909 106.018C123.747 105.177 124.196 104.036 124.196 102.865C124.196 101.664 123.717 100.553 122.879 99.7125C122.012 98.8418 120.875 98.4214 119.738 98.4214Z" fill="white"/>
<path opacity="0.3" d="M59.1807 106.558C61.2152 108.57 64.4764 108.57 66.5109 106.528C68.5155 104.486 68.5155 101.214 66.481 99.172C64.4465 97.1603 61.1853 97.1603 59.1507 99.202C57.1461 101.244 57.1461 104.546 59.1807 106.558Z" fill="white"/>
<path opacity="0.2" d="M34.3475 108.78C32.8515 108.78 31.3256 108.21 30.1887 107.069C27.8849 104.757 27.855 101.004 30.1588 98.6918C31.2658 97.5808 32.7618 96.9503 34.3176 96.9503C34.3176 96.9503 34.3176 96.9503 34.3475 96.9503C35.9033 96.9503 37.3993 97.5508 38.5063 98.6617C40.8101 100.974 40.84 104.727 38.5362 107.039C37.3993 108.21 35.8734 108.78 34.3475 108.78ZM34.3475 98.4215C33.2105 98.4215 32.0736 98.8719 31.2059 99.7426C29.4706 101.484 29.5005 104.306 31.2359 106.048C32.9712 107.789 35.7836 107.759 37.5189 106.018C39.2543 104.276 39.2243 101.454 37.489 99.7126C36.6214 98.8419 35.4844 98.4215 34.3475 98.4215Z" fill="white"/>
<path d="M2.24396 106.558C4.27848 108.57 7.5397 108.57 9.57422 106.528C11.6087 104.487 11.5788 101.214 9.5443 99.1722C7.50978 97.1305 4.24856 97.1606 2.21404 99.2023C0.209437 101.244 0.239357 104.547 2.24396 106.558Z" fill="white"/>
<path d="M201.478 82.5682C203.512 84.5799 206.773 84.5799 208.808 82.5382C210.812 80.4965 210.812 77.2238 208.778 75.1821C206.743 73.1404 203.482 73.1704 201.448 75.2121C199.443 77.2538 199.443 80.5565 201.478 82.5682Z" fill="white"/>
<path opacity="0.3" d="M173.024 82.5683C175.059 84.5799 178.32 84.5799 180.354 82.5382C182.359 80.4965 182.359 77.2238 180.324 75.1821C178.29 73.1705 175.029 73.1705 172.994 75.2122C170.99 77.2539 170.99 80.5566 173.024 82.5683Z" fill="white"/>
<path d="M144.571 82.5682C146.605 84.5799 149.867 84.5799 151.901 82.5382C153.906 80.4965 153.906 77.2238 151.871 75.1821C149.837 73.1404 146.575 73.1704 144.541 75.2121C142.506 77.2538 142.536 80.5565 144.571 82.5682Z" fill="white"/>
<path d="M59.1807 82.5683C61.2152 84.5799 64.4764 84.5799 66.5109 82.5382C68.5155 80.4965 68.5155 77.2238 66.481 75.1821C64.4465 73.1705 61.1853 73.1705 59.1507 75.2122C57.1461 77.2539 57.1461 80.5566 59.1807 82.5683Z" fill="white"/>
<path d="M34.3475 84.8203C32.7917 84.8203 31.2957 84.2198 30.1887 83.1089C27.8849 80.797 27.855 77.0438 30.1588 74.7319C32.4626 72.42 36.2025 72.39 38.5063 74.7019C39.6133 75.8128 40.2416 77.3141 40.2416 78.8754C40.2416 80.4667 39.6432 81.9379 38.5362 83.0788C37.4292 84.1898 35.9631 84.8203 34.3475 84.8203C34.3774 84.8203 34.3774 84.8203 34.3475 84.8203ZM34.3475 74.4317C33.1507 74.4317 32.0138 74.9121 31.176 75.7528C29.4407 77.4942 29.4706 80.3166 31.2059 82.058C32.0437 82.8987 33.1507 83.3491 34.3475 83.3491C34.3475 83.3491 34.3475 83.3491 34.3774 83.3491C35.5742 83.3491 36.6812 82.8687 37.5189 82.028C38.3567 81.1873 38.8055 80.0463 38.8055 78.8754C38.8055 77.6744 38.3268 76.5634 37.489 75.7228C36.6513 74.8821 35.5443 74.4317 34.3475 74.4317Z" fill="white"/>
<path d="M5.89413 84.8204C4.33832 84.8204 2.84235 84.2199 1.73533 83.109C0.628308 81.968 0 80.4968 0 78.9055C0 77.3142 0.598389 75.843 1.70541 74.702C2.81243 73.5911 4.3084 72.9606 5.86421 72.9606C7.42002 72.9906 8.916 73.5611 10.0529 74.672C11.16 75.7829 11.7883 77.2842 11.7883 78.8454C11.7883 80.4067 11.1899 81.908 10.0829 83.0489C8.97583 84.1899 7.50978 84.8204 5.89413 84.8204C5.92405 84.8204 5.89413 84.8204 5.89413 84.8204ZM5.89413 74.4318C4.69735 74.4318 3.56041 74.9122 2.72267 75.7529C1.88493 76.5936 1.43613 77.7345 1.43613 78.9055C1.43613 80.1065 1.91484 81.2174 2.75259 82.0581C3.59033 82.8988 4.69735 83.3492 5.89413 83.3492C5.89413 83.3492 5.89413 83.3492 5.92405 83.3492C7.12083 83.3492 8.22785 82.8688 9.06559 82.0281C9.90334 81.1874 10.3521 80.0464 10.3521 78.8755C10.3521 77.6745 9.87342 76.5636 9.03567 75.7229C8.19793 74.8822 7.09091 74.4318 5.89413 74.4318Z" fill="white"/>
<path d="M205.128 61.0706C203.572 61.0706 201.986 60.4701 200.789 59.2992C198.396 56.8972 198.366 52.994 200.76 50.592C203.153 48.19 207.043 48.16 209.436 50.5619C210.603 51.7329 211.231 53.2642 211.261 54.9155C211.261 56.5669 210.633 58.1282 209.466 59.2691C208.299 60.4701 206.713 61.0706 205.128 61.0706ZM202.166 57.918C203.811 59.5694 206.474 59.5394 208.12 57.888C209.765 56.2366 209.735 53.5644 208.09 51.9131C206.444 50.2617 203.781 50.2917 202.136 51.9431C200.52 53.5944 200.52 56.2667 202.166 57.918Z" fill="white"/>
<path opacity="0.2" d="M230.26 85.0603C228.615 85.0603 227.089 84.4298 225.922 83.2588C223.528 80.8568 223.498 76.9536 225.892 74.5516C227.059 73.3806 228.585 72.7501 230.23 72.7201H230.26C231.906 72.7201 233.432 73.3506 234.598 74.5216C235.765 75.6926 236.394 77.2238 236.423 78.8752C236.423 80.5266 235.795 82.0878 234.628 83.2288C233.461 84.3998 231.906 85.0603 230.26 85.0603ZM230.26 74.6717C229.183 74.6717 228.106 75.0921 227.268 75.9027C225.623 77.5541 225.652 80.2263 227.298 81.8777C228.106 82.6583 229.153 83.1087 230.26 83.1087C230.26 83.1087 230.26 83.1087 230.29 83.1087C231.427 83.1087 232.474 82.6583 233.252 81.8477C234.03 81.037 234.479 79.9861 234.479 78.8452C234.479 77.7042 234.03 76.6534 233.222 75.8727C232.384 75.0921 231.307 74.6717 230.26 74.6717Z" fill="white"/>
<path d="M226.61 58.6085C228.644 60.6202 231.906 60.6202 233.94 58.5785C235.945 56.5368 235.945 53.2641 233.91 51.2224C231.876 49.2108 228.615 49.2108 226.58 51.2525C224.575 53.2941 224.575 56.5669 226.61 58.6085Z" fill="white"/>
<path d="M62.8308 61.0706C61.275 61.0706 59.6893 60.4701 58.4925 59.2992C57.3256 58.1282 56.6973 56.5969 56.6674 54.9456C56.6674 53.2942 57.2957 51.7329 58.4626 50.592C60.8561 48.19 64.7457 48.16 67.1392 50.5619C68.3061 51.7329 68.9344 53.2642 68.9643 54.9155C68.9643 56.5669 68.336 58.1282 67.1692 59.2691C65.9724 60.4701 64.4166 61.0706 62.8308 61.0706ZM59.8688 57.918C61.5144 59.5694 64.1772 59.5394 65.8228 57.888C67.4683 56.2366 67.4384 53.5644 65.7929 51.9131C64.1473 50.2617 61.4845 50.2917 59.8389 51.9431C58.1933 53.5944 58.2232 56.2667 59.8688 57.918Z" fill="white"/>
<path d="M34.3475 60.8304C32.8515 60.8304 31.3256 60.2599 30.1887 59.119C27.8849 56.8071 27.855 53.054 30.1588 50.7421C32.4626 48.4301 36.2025 48.4001 38.5063 50.712C40.8101 53.024 40.84 56.7771 38.5362 59.089C37.3993 60.2599 35.8734 60.8304 34.3475 60.8304ZM31.2359 58.0681C32.9712 59.8096 35.7836 59.7795 37.5189 58.0381C39.2543 56.2967 39.2243 53.4743 37.489 51.7329C35.7537 49.9914 32.9113 50.0215 31.2059 51.7629C29.4706 53.5044 29.5005 56.3567 31.2359 58.0681Z" fill="white"/>
<path opacity="0.2" d="M176.674 35.099C175.178 35.099 173.652 34.5285 172.515 33.3875C170.212 31.0756 170.182 27.3225 172.486 25.0106C174.789 22.6987 178.529 22.6687 180.833 24.9806C181.94 26.0915 182.568 27.5928 182.568 29.154C182.568 30.7454 181.97 32.2166 180.863 33.3575C179.696 34.4985 178.17 35.099 176.674 35.099ZM173.533 32.3367C175.268 34.0781 178.11 34.0481 179.816 32.3067C181.551 30.5652 181.521 27.7429 179.786 26.0014C178.051 24.26 175.208 24.29 173.503 26.0315C171.768 27.7729 171.797 30.5952 173.533 32.3367Z" fill="white"/>
<path d="M148.191 35.3391C146.635 35.3391 145.049 34.7386 143.853 33.5376C141.459 31.1356 141.429 27.2324 143.823 24.8304C146.216 22.4284 150.106 22.3984 152.499 24.8003C153.666 25.9713 154.295 27.5026 154.325 29.1539C154.325 30.8053 153.696 32.3666 152.529 33.5076C151.362 34.7386 149.777 35.3391 148.191 35.3391ZM145.229 32.1564C146.875 33.8078 149.537 33.7778 151.183 32.1264C152.829 30.475 152.799 27.8028 151.153 26.1515C149.507 24.5001 146.845 24.5301 145.199 26.1815C143.583 27.8629 143.583 30.5351 145.229 32.1564Z" fill="white"/>
<path d="M34.3475 35.099C32.8515 35.099 31.3256 34.5285 30.1887 33.3875C27.8849 31.0756 27.855 27.3225 30.1588 25.0106C32.4626 22.6987 36.2025 22.6687 38.5063 24.9806C40.8101 27.2925 40.84 31.0456 38.5362 33.3575C37.3993 34.4985 35.8734 35.099 34.3475 35.099ZM31.2359 32.3367C32.9712 34.0781 35.7836 34.0481 37.5189 32.3067C39.2543 30.5652 39.2243 27.7429 37.489 26.0014C35.7537 24.26 32.9113 24.29 31.2059 26.0315C29.4706 27.7729 29.5005 30.5952 31.2359 32.3367Z" fill="white"/>
<path d="M144.571 8.88735C146.605 10.899 149.867 10.899 151.901 8.85732C153.936 6.81563 153.906 3.54292 151.871 1.50123C149.837 -0.510433 146.575 -0.510433 144.541 1.53126C142.506 3.57295 142.536 6.84566 144.571 8.88735Z" fill="white"/>
</g>
<defs>
<clipPath id="clip0">
<rect width="260" height="157" fill="white"/>
</clipPath>
</defs>
</svg>
