<svg width="151" height="309" viewBox="0 0 151 309" fill="none" xmlns="http://www.w3.org/2000/svg">
<g opacity="0.1" clip-path="url(#clip0)">
<path opacity="0.2" d="M86.2463 210.679C84.5576 210.679 82.9917 210.003 81.7942 208.805C80.5968 207.607 79.952 206.01 79.952 204.352C79.952 202.662 80.6275 201.096 81.8249 199.898C84.2812 197.441 88.3034 197.471 90.729 199.929C91.9264 201.126 92.5712 202.724 92.5712 204.382C92.5712 206.072 91.8957 207.638 90.6983 208.836C89.5315 210.034 87.9349 210.679 86.2463 210.679C86.277 210.679 86.2463 210.679 86.2463 210.679ZM83.2373 201.311C81.5486 203 81.5486 205.734 83.2066 207.423C84.8953 209.113 87.6279 209.113 89.3166 207.454C90.1456 206.655 90.5755 205.55 90.5755 204.413C90.5755 203.246 90.1456 202.171 89.3166 201.341C88.4876 200.481 87.3516 200.082 86.2463 200.082C85.1716 200.051 84.0663 200.481 83.2373 201.311Z" fill="white"/>
<path opacity="0.2" d="M90.0228 234.76C87.9349 236.818 84.5882 236.818 82.5004 234.729C80.4433 232.641 80.4433 229.293 82.5311 227.204C84.6189 225.146 87.9656 225.146 90.0535 227.235C92.1106 229.354 92.0799 232.702 90.0228 234.76Z" fill="white"/>
<path opacity="0.3" d="M148.421 208.16C146.333 210.218 142.986 210.218 140.899 208.13C138.841 206.041 138.841 202.693 140.929 200.604C143.017 198.546 146.364 198.546 148.452 200.635C150.509 202.724 150.509 206.072 148.421 208.16Z" fill="white"/>
<path opacity="0.3" d="M90.0228 183.618C87.9349 185.676 84.5882 185.676 82.5004 183.588C80.4433 181.499 80.4433 178.151 82.5311 176.062C84.6189 174.004 87.9656 174.004 90.0535 176.093C92.1106 178.182 92.0799 181.561 90.0228 183.618Z" fill="white"/>
<path d="M148.421 183.618C146.333 185.676 142.986 185.676 140.899 183.588C138.841 181.499 138.841 178.151 140.929 176.062C143.017 174.004 146.364 174.004 148.452 176.093C150.509 178.182 150.509 181.561 148.421 183.618Z" fill="white"/>
<path opacity="0.3" d="M90.0228 159.077C87.9349 161.135 84.5882 161.135 82.5004 159.046C80.4433 156.957 80.4433 153.609 82.5311 151.521C84.6189 149.463 87.9656 149.463 90.0535 151.551C92.1106 153.64 92.0799 157.019 90.0228 159.077Z" fill="white"/>
<path d="M56.0033 159.752C54.8058 158.554 54.1611 156.957 54.1611 155.299C54.1611 153.609 54.8366 152.043 56.034 150.845C57.2314 149.678 58.7973 149.002 60.486 149.002H60.5167C62.2054 149.002 63.7713 149.678 64.9687 150.876C67.425 153.333 67.3943 157.357 64.938 159.783C63.7099 161.012 62.1133 161.626 60.486 161.626C58.8587 161.626 57.2621 160.981 56.0033 159.752ZM57.4463 152.258C56.6174 153.056 56.1875 154.162 56.1568 155.299C56.1568 156.466 56.5867 157.541 57.4157 158.37C59.1043 160.06 61.837 160.06 63.5257 158.401C65.2143 156.712 65.2143 153.978 63.5564 152.288C62.7274 151.428 61.5913 151.029 60.486 151.029C59.3807 150.998 58.2753 151.398 57.4463 152.258Z" fill="white"/>
<path opacity="0.3" d="M140.223 159.752C139.026 158.554 138.381 156.957 138.381 155.299C138.381 153.609 139.056 152.043 140.254 150.845C141.451 149.678 143.017 149.002 144.706 149.002H144.736C146.425 149.002 147.991 149.678 149.189 150.876C151.645 153.333 151.614 157.357 149.158 159.783C147.93 161.012 146.333 161.626 144.706 161.626C143.048 161.626 141.451 160.981 140.223 159.752ZM141.635 152.258C140.806 153.056 140.377 154.162 140.346 155.299C140.346 156.466 140.776 157.541 141.605 158.37C143.293 160.06 146.026 160.06 147.715 158.401C149.403 156.712 149.403 153.978 147.745 152.288C146.916 151.428 145.78 151.029 144.675 151.029C143.57 150.998 142.495 151.398 141.635 152.258Z" fill="white"/>
<path d="M90.0228 134.535C87.9349 136.593 84.5882 136.593 82.5004 134.504C80.4433 132.415 80.4433 129.067 82.5311 126.979C84.6189 124.921 87.9656 124.921 90.0535 127.009C92.1413 129.098 92.0799 132.477 90.0228 134.535Z" fill="white"/>
<path opacity="0.3" d="M148.421 134.535C146.333 136.593 142.986 136.593 140.899 134.504C138.841 132.415 138.841 129.067 140.929 126.979C143.017 124.921 146.364 124.921 148.452 127.009C150.509 129.129 150.509 132.477 148.421 134.535Z" fill="white"/>
<path opacity="0.3" d="M148.421 307.464C146.333 309.522 142.986 309.522 140.899 307.433C138.841 305.345 138.841 301.997 140.929 299.908C143.017 297.85 146.364 297.85 148.452 299.939C150.509 302.028 150.509 305.376 148.421 307.464Z" fill="white"/>
<path d="M148.421 282.922C146.333 284.98 142.986 284.98 140.899 282.892C138.841 280.803 138.841 277.455 140.929 275.366C143.017 273.308 146.364 273.308 148.452 275.397C150.509 277.486 150.509 280.864 148.421 282.922Z" fill="white"/>
<path opacity="0.3" d="M140.223 259.056C139.026 257.858 138.381 256.261 138.381 254.602C138.381 252.913 139.056 251.347 140.254 250.149C142.71 247.691 146.732 247.722 149.158 250.179C151.614 252.637 151.583 256.66 149.127 259.087C147.899 260.316 146.302 260.93 144.675 260.93C143.048 260.93 141.451 260.285 140.223 259.056ZM147.715 257.674C149.403 255.985 149.403 253.251 147.745 251.562C146.057 249.872 143.324 249.872 141.635 251.531C139.947 253.22 139.947 255.954 141.605 257.643C143.293 259.333 146.026 259.363 147.715 257.674Z" fill="white"/>
<path d="M148.421 233.839C146.333 235.897 142.986 235.897 140.899 233.808C138.841 231.719 138.841 228.371 140.929 226.283C143.017 224.225 146.364 224.225 148.452 226.313C150.509 228.433 150.509 231.781 148.421 233.839Z" fill="white"/>
<path d="M90.0228 110.024C87.9349 112.082 84.5882 112.082 82.5004 109.993C80.4433 107.904 80.4433 104.556 82.5311 102.468C84.6189 100.41 87.9656 100.41 90.0535 102.498C92.1106 104.587 92.0799 107.935 90.0228 110.024Z" fill="white"/>
<path d="M38.9935 110.024C36.9057 112.082 33.559 112.082 31.4711 109.993C29.414 107.904 29.414 104.556 31.5018 102.468C33.5897 100.41 36.9364 100.41 39.0242 102.498C41.112 104.587 41.0813 107.935 38.9935 110.024Z" fill="white"/>
<path d="M115.445 112.297C113.818 112.297 112.314 111.652 111.178 110.515C110.041 109.379 109.427 107.843 109.427 106.215C109.427 104.587 110.072 103.082 111.208 101.945C112.344 100.809 113.879 100.195 115.476 100.195C115.476 100.195 115.476 100.195 115.507 100.195C117.134 100.195 118.638 100.84 119.775 101.976C122.139 104.341 122.108 108.181 119.744 110.546C118.608 111.682 117.103 112.297 115.445 112.297C115.476 112.297 115.476 112.297 115.445 112.297ZM112.252 102.99C111.392 103.85 110.901 104.986 110.901 106.215C110.901 107.444 111.362 108.58 112.221 109.44C113.081 110.3 114.217 110.792 115.445 110.792C115.445 110.792 115.445 110.792 115.476 110.792C116.673 110.792 117.84 110.331 118.7 109.471C119.56 108.611 120.051 107.474 120.051 106.246C120.051 105.017 119.59 103.881 118.731 103.02C117.84 102.13 116.673 101.669 115.507 101.669C114.309 101.669 113.143 102.13 112.252 102.99Z" fill="white"/>
<path d="M56.1875 110.515C55.0514 109.379 54.4374 107.843 54.4374 106.215C54.4374 104.587 55.0822 103.082 56.2182 101.945C57.3542 100.809 58.8894 100.195 60.486 100.195C60.486 100.195 60.486 100.195 60.5167 100.195C62.144 100.195 63.6484 100.84 64.7845 101.976C67.1486 104.341 67.1179 108.181 64.7538 110.546C63.587 111.713 62.0212 112.297 60.486 112.297C58.9201 112.297 57.3849 111.713 56.1875 110.515ZM57.2621 102.99C56.4024 103.85 55.9111 104.986 55.9111 106.215C55.9111 107.444 56.3717 108.58 57.2314 109.44C58.0911 110.3 59.2271 110.792 60.4553 110.792C61.6527 110.853 62.8194 110.331 63.6791 109.471C65.46 107.689 65.46 104.802 63.7098 103.02C62.8194 102.13 61.6527 101.669 60.486 101.669C59.3192 101.669 58.1525 102.13 57.2621 102.99Z" fill="white"/>
<path d="M148.421 110.024C146.333 112.082 142.986 112.082 140.899 109.993C138.841 107.904 138.841 104.556 140.929 102.468C143.017 100.41 146.364 100.41 148.452 102.498C150.509 104.587 150.509 107.935 148.421 110.024Z" fill="white"/>
<path d="M90.0228 85.4819C87.9349 87.5398 84.5882 87.5398 82.5004 85.4512C80.4433 83.3625 80.4433 80.0145 82.5311 77.9258C84.6189 75.8679 87.9656 75.8679 90.0535 77.9565C92.1106 80.0452 92.0799 83.4239 90.0228 85.4819Z" fill="white"/>
<path d="M119.222 85.4819C117.134 87.5398 113.787 87.5398 111.699 85.4512C109.642 83.3625 109.642 80.0145 111.73 77.9258C113.818 75.8679 117.165 75.8679 119.253 77.9565C121.31 80.0452 121.31 83.4239 119.222 85.4819Z" fill="white"/>
<path d="M148.421 85.4819C146.333 87.5398 142.986 87.5398 140.899 85.4512C138.841 83.3625 138.841 80.0145 140.929 77.9258C143.017 75.8679 146.364 75.8679 148.452 77.9565C150.509 80.0452 150.509 83.4239 148.421 85.4819Z" fill="white"/>
<path d="M90.0228 60.9399C87.9349 62.9979 84.5882 62.9979 82.5004 60.9092C80.4433 58.8205 80.4433 55.4725 82.5311 53.3839C84.6189 51.3259 87.9656 51.3259 90.0535 53.4146C92.1106 55.5032 92.0799 58.882 90.0228 60.9399Z" fill="white"/>
<path d="M111.178 61.4313C110.041 60.2949 109.427 58.7591 109.427 57.1312C109.427 55.5032 110.072 53.9981 111.208 52.8617C113.572 50.4966 117.41 50.5273 119.775 52.8924C122.139 55.2575 122.108 59.097 119.744 61.4621C118.577 62.6293 117.011 63.2129 115.476 63.2129C113.91 63.2436 112.375 62.6293 111.178 61.4313ZM118.7 60.4177C119.56 59.5577 120.051 58.4212 120.051 57.1926C120.051 55.964 119.59 54.8275 118.731 53.9674C116.95 52.1859 114.064 52.1859 112.283 53.9367C110.502 55.7182 110.502 58.6055 112.252 60.387C114.002 62.1685 116.919 62.1992 118.7 60.4177Z" fill="white"/>
<path d="M56.1875 61.4313C53.8233 59.0662 53.854 55.2268 56.2182 52.8617C58.5824 50.4966 62.4203 50.5273 64.7845 52.8924C67.1486 55.2575 67.1179 59.097 64.7538 61.4621C63.587 62.6293 62.0212 63.2129 60.486 63.2129C58.9201 63.2436 57.3849 62.6293 56.1875 61.4313ZM63.7099 60.4177C65.4907 58.6362 65.4907 55.7489 63.7406 53.9674C61.9597 52.1859 59.0736 52.1859 57.2928 53.9367C55.512 55.7182 55.4813 58.6055 57.2621 60.387C59.0122 62.1685 61.929 62.1992 63.7099 60.4177Z" fill="white"/>
<path d="M148.421 60.9399C146.333 62.9979 142.986 62.9979 140.899 60.9092C138.841 58.8205 138.841 55.4725 140.929 53.3839C143.017 51.3259 146.364 51.3259 148.452 53.4146C150.509 55.5032 150.509 58.882 148.421 60.9399Z" fill="white"/>
<path d="M86.2463 37.1661C84.5576 37.1661 82.9917 36.4903 81.7942 35.2924C80.5968 34.0945 79.952 32.4973 79.952 30.8386C79.952 29.1493 80.6275 27.5828 81.8249 26.3848C84.2812 23.9276 88.3034 23.9583 90.729 26.4156C93.1853 28.8728 93.1546 32.8966 90.6983 35.3231C89.5315 36.4903 87.935 37.1661 86.2463 37.1661C86.277 37.1661 86.2463 37.1661 86.2463 37.1661ZM83.2373 27.7978C81.5486 29.4871 81.5486 32.2208 83.2066 33.9102C84.8953 35.5996 87.6279 35.5996 89.3166 33.9409C91.0053 32.2515 91.0053 29.5178 89.3473 27.8285C88.5183 26.9684 87.3823 26.5691 86.277 26.5691C85.1716 26.5384 84.0663 26.9377 83.2373 27.7978Z" fill="white"/>
<path d="M115.445 36.9202C113.818 36.9202 112.314 36.2752 111.178 35.1387C110.041 34.0022 109.427 32.4664 109.427 30.8385C109.427 29.2106 110.072 27.7055 111.208 26.569C113.572 24.2039 117.41 24.2346 119.775 26.5998C122.139 28.9649 122.108 32.8043 119.744 35.1694C118.608 36.2752 117.103 36.9202 115.445 36.9202C115.476 36.9202 115.476 36.9202 115.445 36.9202ZM112.252 27.6134C110.471 29.3949 110.471 32.2822 112.221 34.0637C113.081 34.9237 114.217 35.4152 115.445 35.4152C115.445 35.4152 115.445 35.4152 115.476 35.4152C116.673 35.4152 117.84 34.9544 118.7 34.0944C119.56 33.2343 120.051 32.0979 120.051 30.8692C120.051 29.6406 119.59 28.5041 118.731 27.6441C117.84 26.7533 116.673 26.2926 115.476 26.2926C114.309 26.2926 113.143 26.7226 112.252 27.6134Z" fill="white"/>
<path opacity="0.3" d="M144.675 37.1661C142.986 37.1661 141.421 36.4903 140.223 35.2924C139.026 34.0945 138.381 32.4973 138.381 30.8386C138.381 29.1493 139.056 27.5828 140.254 26.3848C142.71 23.9276 146.732 23.9583 149.158 26.4156C151.614 28.8728 151.583 32.8966 149.127 35.3231C147.93 36.4903 146.364 37.1661 144.675 37.1661ZM141.635 27.7978C139.947 29.4871 139.947 32.2208 141.605 33.9102C143.293 35.5996 146.026 35.5996 147.715 33.9409C149.403 32.2515 149.403 29.5178 147.745 27.8285C146.916 26.9684 145.78 26.5691 144.675 26.5691C143.57 26.5384 142.495 26.9377 141.635 27.7978Z" fill="white"/>
<path d="M86.2463 12.6241C84.5576 12.6241 82.9917 11.9484 81.7942 10.7505C80.5968 9.55257 79.952 7.95535 79.952 6.2967C79.952 4.60734 80.6275 3.04084 81.8249 1.84292C83.0224 0.645011 84.619 -0.0614508 86.277 -1.93743e-05C87.9657 -1.93743e-05 89.5315 0.675726 90.729 1.87364C91.9264 3.07155 92.5712 4.66877 92.5712 6.32742C92.5712 8.01678 91.8957 9.58328 90.6983 10.7812C89.5315 11.9791 87.9349 12.6241 86.2463 12.6241C86.277 12.6241 86.2463 12.6241 86.2463 12.6241ZM83.2373 3.25585C82.4083 4.05445 81.9785 5.16022 81.9478 6.2967C81.9478 7.4639 82.3776 8.53895 83.2066 9.36827C84.8953 11.0576 87.6279 11.0576 89.3166 9.39899C90.1456 8.60038 90.5755 7.49461 90.5755 6.35813C90.5755 5.19094 90.1456 4.11589 89.3166 3.28656C88.5183 2.45724 87.413 2.02722 86.277 1.9965C85.1102 1.9965 84.0356 2.42652 83.2373 3.25585Z" fill="white"/>
<path d="M115.445 12.3784C113.818 12.3784 112.314 11.7334 111.178 10.5969C110.041 9.46043 109.427 7.92464 109.427 6.29671C109.427 4.66878 110.072 3.16371 111.208 2.02723C113.572 -0.337884 117.41 -0.307168 119.775 2.05794C120.911 3.19442 121.525 4.73021 121.525 6.35814C121.525 7.98607 120.88 9.49114 119.744 10.6276C118.608 11.7334 117.103 12.3784 115.445 12.3784C115.476 12.3784 115.476 12.3784 115.445 12.3784ZM112.252 3.07156C111.392 3.9316 110.901 5.06808 110.901 6.29671C110.901 7.52534 111.362 8.66182 112.221 9.52186C113.081 10.3819 114.217 10.8733 115.445 10.8733C115.445 10.8733 115.445 10.8733 115.476 10.8733C116.673 10.8733 117.84 10.4126 118.7 9.55257C119.56 8.69253 120.051 7.55605 120.051 6.32742C120.051 5.0988 119.59 3.96232 118.731 3.10228C117.871 2.24224 116.735 1.75078 115.507 1.75078C115.507 1.75078 115.507 1.75078 115.476 1.75078C114.279 1.75078 113.112 2.21152 112.252 3.07156Z" fill="white"/>
<path d="M148.421 10.0747C146.333 12.1327 142.986 12.1327 140.898 10.044C138.841 7.98606 138.872 4.60733 140.929 2.54938C143.017 0.491429 146.364 0.491429 148.452 2.5801C150.509 4.63805 150.509 8.01678 148.421 10.0747Z" fill="white"/>
<path d="M1.7501 10.5663C0.614071 9.42977 0 7.9247 0 6.29677C0 4.66884 0.644774 3.16377 1.78081 2.02728C2.91684 0.890804 4.45201 0.276489 6.0486 0.276489H6.0793C7.70659 0.276489 9.21106 0.921519 10.3471 2.058C11.4831 3.19448 12.0972 4.73027 12.0972 6.3582C12.0972 7.98613 11.4524 9.4912 10.3164 10.6277C9.14965 11.7949 7.61448 12.3785 6.0486 12.3785C4.51342 12.3785 2.94754 11.7642 1.7501 10.5663ZM2.85543 3.07162C1.96503 3.93166 1.50447 5.06814 1.50447 6.29677C1.50447 7.5254 1.96503 8.66188 2.82473 9.52192C3.68442 10.382 4.82046 10.8734 6.0486 10.8734C7.24604 10.9041 8.41277 10.4127 9.27247 9.55263C10.1322 8.69259 10.6234 7.55611 10.6234 6.32748C10.6234 5.09886 10.1629 3.96237 9.30317 3.10233C8.44347 2.24229 7.27674 1.75084 6.0793 1.75084C6.0793 1.75084 6.0793 1.75084 6.0486 1.75084C4.85116 1.75084 3.71513 2.21158 2.85543 3.07162Z" fill="white"/>
<path d="M38.9935 10.0747C36.9057 12.1327 33.559 12.1327 31.4712 10.044C29.414 7.98606 29.4447 4.60733 31.5326 2.54938C33.6204 0.491429 36.9671 0.491429 39.0549 2.5801C41.1121 4.63805 41.0814 8.01678 38.9935 10.0747Z" fill="white"/>
<path d="M64.2318 10.0747C62.144 12.1327 58.7973 12.1327 56.7094 10.044C54.6523 7.98606 54.683 4.60733 56.7401 2.54938C58.828 0.491429 62.1747 0.491429 64.2625 2.5801C66.3197 4.63805 66.3197 8.01678 64.2318 10.0747Z" fill="white"/>
</g>
<defs>
<clipPath id="clip0">
<rect width="151" height="309" fill="white"/>
</clipPath>
</defs>
</svg>
